<svg width="157" height="28" viewBox="0 0 157 28" fill="none" xmlns="http://www.w3.org/2000/svg">
<path d="M38.28 20L40.968 10.2H43.894L46.582 20H44.846L44.258 17.76H40.604L40.016 20H38.28ZM40.996 16.22H43.866L42.55 11.25H42.312L40.996 16.22ZM50.8872 20V18.516H52.2032V11.684H50.8872V10.2H54.8772C56.1838 10.2 57.1825 10.5313 57.8732 11.194C58.5638 11.8567 58.9092 12.8507 58.9092 14.176V16.024C58.9092 17.3493 58.5638 18.3433 57.8732 19.006C57.1825 19.6687 56.1838 20 54.8772 20H50.8872ZM53.8832 18.474H54.8912C55.6845 18.474 56.2725 18.2687 56.6552 17.858C57.0378 17.4473 57.2292 16.8547 57.2292 16.08V14.134C57.2292 13.3407 57.0378 12.7433 56.6552 12.342C56.2725 11.9313 55.6845 11.726 54.8912 11.726H53.8832V18.474ZM63.1218 20L65.8098 10.2H68.7358L71.4238 20H69.6878L69.0998 17.76H65.4458L64.8578 20H63.1218ZM65.8378 16.22H68.7078L67.3918 11.25H67.1538L65.8378 16.22ZM76.051 20V10.2H79.201L81.105 18.866H81.343L83.261 10.2H86.397V20H84.773V11.418H84.535L82.631 20H79.831L77.927 11.418H77.689V20H76.051ZM91.7258 20V10.2H93.4198V20H91.7258ZM98.0467 20L100.735 10.2H103.661L106.349 20H104.613L104.025 17.76H100.371L99.7827 20H98.0467ZM100.763 16.22H103.633L102.317 11.25H102.079L100.763 16.22ZM110.976 20V10.2H114.196L116.506 18.866H116.73V10.2H118.396V20H115.19L112.88 11.334H112.642V20H110.976ZM123.711 20V10.2H125.405V20H123.711ZM131.768 20.196C131.413 20.196 131.115 20.0793 130.872 19.846C130.639 19.6127 130.522 19.314 130.522 18.95C130.522 18.5953 130.639 18.3013 130.872 18.068C131.115 17.8347 131.413 17.718 131.768 17.718C132.123 17.718 132.417 17.8347 132.65 18.068C132.883 18.3013 133 18.6 133 18.964C133 19.328 132.883 19.6267 132.65 19.86C132.417 20.084 132.123 20.196 131.768 20.196ZM137.435 20L140.123 10.2H143.049L145.737 20H144.001L143.413 17.76H139.759L139.171 20H137.435ZM140.151 16.22H143.021L141.705 11.25H141.467L140.151 16.22ZM150.365 20V10.2H152.059V20H150.365Z" fill="#061C2E"/>
<rect width="28" height="28" rx="4" fill="#061C2E"/>
<g clip-path="url(#clip0_304_6)">
<path d="M8.1665 12.5417C8.16652 11.8925 8.36343 11.2587 8.73125 10.7238C9.09906 10.1889 9.62047 9.77822 10.2266 9.5459C10.8327 9.31358 11.4951 9.2706 12.1262 9.42261C12.7573 9.57463 13.3274 9.9145 13.7613 10.3973C13.7918 10.43 13.8288 10.4561 13.8698 10.4739C13.9108 10.4917 13.9551 10.5009 13.9998 10.5009C14.0446 10.5009 14.0888 10.4917 14.1299 10.4739C14.1709 10.4561 14.2079 10.43 14.2384 10.3973C14.6709 9.91136 15.2412 9.56863 15.8733 9.41477C16.5054 9.26091 17.1694 9.30321 17.7768 9.53604C18.3843 9.76887 18.9065 10.1812 19.2738 10.7181C19.6412 11.255 19.8363 11.8911 19.8332 12.5417C19.8332 13.8775 18.9582 14.875 18.0832 15.75L14.8795 18.8493C14.7708 18.9741 14.6368 19.0744 14.4864 19.1434C14.3359 19.2125 14.1725 19.2487 14.007 19.2498C13.8415 19.2508 13.6776 19.2167 13.5263 19.1495C13.375 19.0824 13.2398 18.9838 13.1295 18.8603L9.9165 15.75C9.0415 14.875 8.1665 13.8833 8.1665 12.5417Z" stroke="#FAFAF7" stroke-linecap="round" stroke-linejoin="round"/>
<path d="M8.87842 14.5834H12.5418L12.8334 14L14.0001 16.625L15.1668 12.5417L16.0418 14.5834H19.1159" stroke="#FAFAF7" stroke-linecap="round" stroke-linejoin="round"/>
</g>
<defs>
<clipPath id="clip0_304_6">
<rect width="14" height="14" fill="white" transform="translate(7 7)"/>
</clipPath>
</defs>
</svg>
